<svg
  xmlns="http://www.w3.org/2000/svg"
  xmlns:xlink="http://www.w3.org/1999/xlink"
  viewBox="0 0 432 106"
  style="enable-background:new 0 0 432 106;"
  xml:space="preserve"
  width="0"
  height="0"
  class="svg-sprite-inline svg-sprite-inline-logo_new"
>
  <style type="text/css">
    .logo-new0 {
      fill-rule: evenodd;
      clip-rule: evenodd;
      fill: #e84e2b;
    }
    .logo-new1 {
      fill-rule: evenodd;
      clip-rule: evenodd;
      fill: #000000;
    }
    .logo-new2 {
      fill-rule: evenodd;
      clip-rule: evenodd;
      fill: #ffffff;
      filter: url(#Adobe_OpacityMaskFilter);
    }
    .logo-new3 {
      mask: url(#mask0_1_);
    }
  </style>
  <g>
    <path
      class="logo-new0"
      d="M51.0635605,55.3656845l45.0695877,29.2118073c1.6079407,1.0428925,3.7265854-0.116684,3.7265854-2.0387573   V24.1145172c0-1.9228764-2.1186447-3.0824547-3.7265854-2.0402622L51.0635605,51.2867661   C49.5885773,52.2431297,49.5885773,54.4101219,51.0635605,55.3656845z"
    ></path>
    <path
      class="logo-new1"
      d="M142.0568848,44.4868965c-2.4389648-1.3519363-4.3467255-3.2685814-5.7242737-5.7507439   c-1.3775482-2.4820633-2.0668182-5.3180962-2.0668182-8.5078812c0-3.1897907,0.6942749-6.0257149,2.0818329-8.5078793   c1.3885498-2.4820633,3.3173065-4.409565,5.7882843-5.782403c2.469986-1.3727379,5.2831116-2.0595589,8.4363556-2.0595589   c2.5450134,0,5.0049896,0.5068245,7.3809357,1.5211773c2.375946,1.0135489,4.3317108,2.4713106,5.8663177,4.3724794   l-4.9199524,4.2775078c-0.9463654-1.1193771-2.0918274-1.9962444-3.4373627-2.6296997   c-1.3465271-0.6342583-2.8491211-0.9509354-4.5107727-0.9509354c-1.8507538,0-3.4803925,0.4071274-4.8889618,1.2197742   c-1.4085541,0.8134537-2.5019836,1.9545364-3.2802887,3.422348c-0.7773132,1.4678116-1.1664581,3.1527023-1.1664581,5.0538731   c0,1.9220734,0.3931427,3.6224442,1.1824493,5.1010094c0.7883301,1.4794693,1.8927612,2.6250763,3.3123322,3.4385262   c1.4185486,0.8127518,3.0431976,1.2198753,4.8719177,1.2198753c0.6732788,0,1.3415375-0.0579872,2.0027924-0.1745682   c0.6622772-0.1158752,1.2775269-0.2796936,1.8457336-0.4913445c0.5682373-0.2109528,1.1034393-0.458889,1.6086426-0.7440071   c0.5041962-0.2858238,0.9673767-0.5971756,1.387558-0.9347534c0.4211578-0.3383865,0.7993164-0.6975784,1.1354523-1.0776711   l4.9839783,4.4358978c-1.4515839,1.6478043-3.3593445,2.988884-5.7252655,4.0241394   c-2.3659515,1.0351601-4.9989929,1.5527382-7.9011536,1.5527382   C147.250946,46.5147972,144.4958649,45.838829,142.0568848,44.4868965z"
    ></path>
    <defs>
      <filter
        id="Adobe_OpacityMaskFilter"
        filterUnits="userSpaceOnUse"
        x="0"
        y="0"
        width="432"
        height="106"
      >
        <feColorMatrix
          type="matrix"
          values="1 0 0 0 0  0 1 0 0 0  0 0 1 0 0  0 0 0 1 0"
        ></feColorMatrix>
      </filter>
    </defs>
    <mask
      maskUnits="userSpaceOnUse"
      x="0"
      y="0"
      width="432"
      height="106"
      id="mask0_1_"
    >
      <path class="logo-new2" d="M0.0004885,106H432V0H0.0004885V106z"></path>
    </mask>
    <g class="logo-new3">
      <path
        class="logo-new1"
        d="M168.3643341,46.0080719h7.2228699V14.3535967h-7.2228699V46.0080719z M168.5534058,8.2228193    c-0.9463806-0.9401636-1.4195557-2.0757904-1.4195557-3.4068608c0-1.3302958,0.473175-2.4659226,1.4195557-3.4060857    C169.4997864,0.4696986,170.6562347,0,172.0227814,0c1.3245239,0,2.4649811,0.4751066,3.4223633,1.4260936    c0.9563751,0.9502132,1.4355621,2.0804226,1.4355621,3.3898649c0,0.866014-0.2220917,1.6686726-0.6632538,2.4087586    c-0.4411926,0.7393126-1.0354156,1.3248892-1.7817078,1.7582779c-0.7463074,0.4326153-1.5506287,0.6496964-2.4129639,0.6496964    C170.6562347,9.6326914,169.4997864,9.1622181,168.5534058,8.2228193z"
      ></path>
      <path
        class="logo-new1"
        d="M185.50914,43.853138c-1.5456238-1.7744408-2.318924-4.393383-2.318924-7.8581429V20.5327759h-3.8475342    v-6.1794796h3.8475342V3.8337264l7.2238617-0.7918444v11.3114147h9.2726898v6.1794796h-9.2726898v14.7971077    c0,1.5843925,0.246109,2.7138138,0.7413025,3.389782c0.4931946,0.675972,1.2565002,1.0143547,2.2859039,1.0143547    c1.4085693,0,2.9651794-0.4542656,4.668869-1.36269l1.8917389,6.2736511    c-1.1354523,0.6126518-2.286911,1.0776672-3.4533691,1.3944473c-1.1674652,0.3167801-2.6860657,0.4750633-4.5578156,0.4750633    C189.2146149,46.514492,187.0547485,45.6276741,185.50914,43.853138z"
      ></path>
      <path
        class="logo-new1"
        d="M221.5774536,13.9099874v8.0799475c-0.8193207-0.0634155-1.5456085-0.0950737-2.1758575-0.0950737    c-1.7867126,0-3.3383179,0.4009972-4.6528625,1.2043991c-1.3135071,0.8026981-2.3018951,1.8849907-2.9641724,3.2477779    c-0.662262,1.3618832-0.9933929,2.9092903-0.9933929,4.6413193v15.019516h-7.2228546V14.3533964h7.2228546v4.7534781h0.095047    c1.2394867-1.690321,2.7060699-2.9843655,4.3987427-3.8820372c1.6936646-0.8976717,3.4963837-1.3465071,5.410141-1.3465071    C221.1152649,13.8783302,221.4093933,13.889184,221.5774536,13.9099874z"
      ></path>
      <path
        class="logo-new1"
        d="M253.2150116,14.3535967v31.6544762h-7.2228699v-4.1191177h-0.0940247    c-1.2404938,1.4994659-2.7020721,2.6451759-4.3847351,3.4377213c-1.6816864,0.7918472-3.458374,1.188221-5.3291321,1.188221    c-1.7886963,0-3.3803406-0.2379875-4.7788849-0.7130508c-1.3985748-0.4751701-2.6280518-1.2090225-3.6904755-2.2025719    c-1.0614166-0.9926414-1.8767395-2.3283997-2.4439697-4.0078659c-0.568222-1.6794662-0.8513336-3.6702805-0.8513336-5.9731483    V14.3535967h7.2218628v17.3008766c0,1.5836926,0.1220551,2.9038639,0.3631439,3.9599247    c0.2411041,1.0568657,0.6252594,1.9012718,1.1514587,2.5355301c0.5252075,0.6334534,1.1664734,1.0822906,1.9237518,1.346508    c0.7563171,0.2642136,1.6926727,0.3962746,2.8071289,0.3962746c1.0724182,0,2.0918274-0.2271347,3.0592194-0.6813965    c0.9673767-0.4542618,1.8297272-1.1038971,2.5860138-1.9491081c0.757309-0.8443031,1.3565521-1.9374504,1.7977142-3.279335    c0.4421844-1.3411789,0.662262-2.8360271,0.662262-4.4838333v-15.145442H253.2150116z"
      ></path>
      <path
        class="logo-new1"
        d="M257.0975647,41.8886528l3.6594543-5.4502487c1.2825012,1.28862,2.6430664,2.23423,4.0835876,2.8360291    c1.4405823,0.6024971,3.1062622,0.9030991,4.9989929,0.9030991c1.3675537,0,2.4449768-0.2851257,3.2332764-0.8552628    c0.7883606-0.5708427,1.1824951-1.3201752,1.1824951-2.2496033c0-0.760891-0.4471741-1.389019-1.3405457-1.8856964    c-0.8933411-0.4959679-2.5279846-1.1564598-4.9039307-1.9800606c-0.9463806-0.3166809-1.7877197-0.6342583-2.5239868-0.9509392    c-0.735321-0.3167763-1.4866333-0.6914425-2.2539368-1.1247997c-0.7683105-0.4326553-1.4255371-0.9131508-1.9717407-1.4415817    c-0.5472412-0.5284328-1.0464478-1.1248035-1.4986267-1.789917c-0.452179-0.6659164-0.7933044-1.4206772-1.0243835-2.2658863    c-0.2320862-0.8451099-0.347168-1.7744389-0.347168-2.7879868c0-2.5772381,1.0454407-4.7163925,3.1382446-6.4166641    c2.0918579-1.7003679,4.7469177-2.5509052,7.9641724-2.5509052c4.1626587,0,7.8851318,1.3202763,11.1654358,3.9607277    l-3.6274414,5.7036133c-0.8203125-0.7601891-1.6976624-1.3997746-2.6340332-1.9166489    c-0.9353638-0.5175781-1.8347168-0.8930473-2.697052-1.1256065c-0.8613892-0.2317543-1.7237244-0.3483353-2.5860596-0.3483353    c-0.8413391,0-1.6236267,0.2324581-2.3499451,0.6975765c-0.7252502,0.4643116-1.0874023,1.1402779-1.0874023,2.0279007    c0,0.5067234,0.2200623,0.9873161,0.662262,1.4414787c0.4411926,0.4542618,0.9983826,0.8605881,1.6716614,1.2198772    c0.6722412,0.3591881,1.5666199,0.7601852,2.6810913,1.2043991c3.3422852,1.330225,5.4241333,2.2070942,6.2444458,2.6296997    c2.0818481,1.1193752,3.4483948,2.4820633,4.1006165,4.0874615c0.3781738,0.9926414,0.5672302,2.1437759,0.5672302,3.4539032    c0,1.3519325-0.2410889,2.603466-0.7252808,3.7545013c-0.4831848,1.1511307-1.1984863,2.1654854-2.1438599,3.0415497    c-0.9473572,0.87677-2.1768494,1.5635872-3.6904602,2.0595589c-1.5146179,0.4966736-3.2492676,0.7447128-5.2050781,0.7447128    C264.8356323,46.5145988,260.5879517,44.9726143,257.0975647,41.8886528z"
      ></path>
      <path
        class="logo-new1"
        d="M156.9277954,96.7315369c1.7346802-1.7853012,2.6030273-4.0820313,2.6030273-6.8917313    c0-2.8096924-0.8473358-5.1598053-2.5400085-7.0501251c-1.6926727-1.8904114-3.8215179-2.8360214-6.3865204-2.8360214    c-1.2615051,0-2.443985,0.2325592-3.5484314,0.6976776c-1.1034393,0.4642105-2.0658112,1.113945-2.8861389,1.9483032    c-0.8193207,0.8343582-1.4665833,1.8803635-1.9397583,3.1372223c-0.4732056,1.2569656-0.7092896,2.6242752-0.7092896,4.1029434    c0,2.8097,0.8413239,5.1064301,2.522995,6.8917313c1.6826782,1.7852859,3.8585358,2.6776352,6.528595,2.6776352    C153.0742645,99.4091721,155.1931,98.5168228,156.9277954,96.7315369z M166.4685669,73.838295v31.6541824h-6.906723v-4.2451553    h-0.0940399C157.0708466,104.4151001,153.7265167,106,149.4378204,106c-1.7246857,0-3.3703461-0.2432098-4.9369659-0.7286301    c-1.5656128-0.4864197-2.9751892-1.2050018-4.2256775-2.1547394c-1.2514954-0.9507294-2.3339233-2.0763321-3.2492981-3.3753052    c-0.9143524-1.2986679-1.6186371-2.7988434-2.1128387-4.4992142c-0.4941864-1.7003708-0.7412872-3.5119934-0.7412872-5.43396    c0-2.3446808,0.3891602-4.5417328,1.1674652-6.5905304c0.7773132-2.0495071,1.8387299-3.7915878,3.1842651-5.228447    c1.3465271-1.4361572,2.9551697-2.5663834,4.8269196-3.3898849c1.8707275-0.8243027,3.8795471-1.2360535,6.0243988-1.2360535    c4.0996094,0,7.3479156,1.4261017,9.7458649,4.277504h0.1260376V73.838295H166.4685669z"
      ></path>
      <path
        class="logo-new1"
        d="M199.3836517,76.6744308c2.0498047,2.2070923,3.0752258,5.6032028,3.0752258,10.1873398v18.6628647    h-7.2228699V88.7305756c0-1.6471024-0.1470642-3.0414505-0.4411926-4.1825333    c-0.295105-1.140274-0.7462921-2.0432739-1.3565369-2.7084885c-0.6092377-0.6659164-1.3195038-1.1464157-2.12883-1.4422836    c-0.8093262-0.295166-1.781723-0.4434052-2.91716-0.4434052c-1.2204895,0-2.3339386,0.211647-3.3443298,0.6334457    c-1.0084076,0.4226074-1.8707428,1.0351563-2.5860291,1.8378601c-0.7152863,0.802597-1.26651,1.8169556-1.6556702,3.0422592    c-0.3891449,1.2251968-0.5832214,2.5979385-0.5832214,4.1191101v15.9059372h-7.2228699V73.838501h7.2228699v4.3408203h0.0940399    c1.325531-1.5627823,2.9021454-2.756424,4.7308807-3.5807419c1.8297119-0.823494,3.7754974-1.2352448,5.8353271-1.2352448    C194.4997101,73.3633347,197.3338318,74.4673309,199.3836517,76.6744308z"
      ></path>
      <path
        class="logo-new1"
        d="M229.807724,96.7475128c1.7666931-1.7745361,2.6490479-4.0767059,2.6490479-6.9072037    c0-2.8306046-0.8563385-5.1860352-2.5700226-7.0663986c-1.7136688-1.8795624-3.9155579-2.8197479-6.6076202-2.8197479    c-1.2614899,0-2.4439697,0.2325592-3.5484009,0.6968689c-1.1034546,0.4650192-2.0658264,1.113945-2.8851471,1.9491119    c-0.8213196,0.8342514-1.4675751,1.8795624-1.9407654,3.1364212c-0.4732056,1.2569656-0.7092896,2.6250763-0.7092896,4.1037445    c0,2.8088837,0.8413391,5.1064301,2.5240021,6.8909225c1.6816559,1.7852936,3.8575287,2.6776352,6.528595,2.6776352    C225.8541565,99.4088669,228.0420227,98.5219498,229.807724,96.7475128z M239.3965302,57.7106628v47.7818146h-6.9077454    v-4.2461624h-0.1260376C229.9657745,104.4161148,226.5494232,106,222.1116638,106    c-1.7236786,0-3.369339-0.2432098-4.9359436-0.7296295c-1.5666351-0.4854202-2.9751892-1.2029953-4.2266846-2.1537399    c-1.2505035-0.9507294-2.3339233-2.075325-3.2472992-3.3748016c-0.9153595-1.299469-1.6196442-2.7989426-2.1148376-4.4992065    c-0.4931946-1.7003784-0.7402802-3.512001-0.7402802-5.4340744c0-2.3453827,0.3881378-4.5417175,1.1664429-6.5912323    c0.7783051-2.0487061,1.840744-3.7915878,3.1862793-5.2276459c1.3455353-1.4369507,2.9541626-2.5671844,4.8249207-3.3906784    c1.8717346-0.8235092,3.8795319-1.2360611,6.0243835-1.2360611c4.2476807,0,7.5699921,1.4261017,9.9669647,4.2783127h0.1580505    V57.7106628H239.3965302z"
      ></path>
      <path
        class="logo-new1"
        d="M264.2203674,73.3948898v8.0799484c-0.8193054-0.0634232-1.5455933-0.0950699-2.1758423-0.0950699    c-1.7867126,0-3.3383179,0.4009933-4.6528625,1.2043915c-1.3135071,0.8026962-2.3018951,1.8849945-2.9641571,3.2477875    c-0.662262,1.3618774-0.9934082,2.9092865-0.9934082,4.6413116v15.0192184h-7.2228546V73.838295h7.2228546v4.7534866h0.0950317    c1.2395172-1.6903229,2.7060699-2.984375,4.3987579-3.8820419c1.6936646-0.8976746,3.4963989-1.3465042,5.4101563-1.3465042    C263.7582092,73.3632355,264.0523071,73.3740845,264.2203674,73.3948898z"
      ></path>
      <path
        class="logo-new1"
        d="M268.1349487,105.4934769h7.2228394V73.838501h-7.2228394V105.4934769z M268.3240356,67.7077637    c-0.9464111-0.9401855-1.4195862-2.0758438-1.4195862-3.4068756c0-1.3303261,0.473175-2.4659805,1.4195862-3.4061623    c0.945343-0.9400864,2.1018066-1.4098244,3.4683533-1.4098244c1.325531,0,2.4659729,0.4750671,3.4233398,1.4261055    c0.9564209,0.9502335,1.4346008,2.0804634,1.4346008,3.3898811c0,0.8660202-0.2200928,1.6686172-0.6622925,2.408699    c-0.4421387,0.7393875-1.0354004,1.3249054-1.7826843,1.7582626c-0.7463074,0.4326477-1.5506287,0.6497345-2.4129639,0.6497345    C270.4258423,69.1175842,269.2693787,68.6471405,268.3240356,67.7077637z"
      ></path>
      <path
        class="logo-new1"
        d="M291.3511353,81.6174469c-1.4515686,1.1094208-2.4289246,2.6776352-2.933136,4.7055359h15.7692566    c-0.3151245-1.2886124-0.8043213-2.4033661-1.4665833-3.3427429c-0.662262-0.9401855-1.5236206-1.6794739-2.5859985-2.2179489    c-1.0614319-0.5391846-2.2649231-0.8080292-3.6114502-0.8080292    C294.5254211,79.9542618,292.8017273,80.5081253,291.3511353,81.6174469z M311.2530518,92.1849823h-22.9621277    c0.4631958,2.2387543,1.4986267,4.0024338,3.1072693,5.2910614c1.6086426,1.2885132,3.569397,1.9328232,5.8822937,1.9328232    c3.2593384,0,5.8773499-1.246109,7.8531494-3.7390213l5.0469971,4.3416214    c-1.4295654,1.836853-3.2652893,3.2951202-5.5041809,4.3724823C302.4375305,105.4613113,299.8455505,106,296.9023438,106    c-3.0491943,0-5.7932739-0.6653137-8.2322693-1.9959412c-2.4389343-1.3316345-4.3637085-3.2481842-5.7722778-5.7516479    c-1.4085388-2.5029678-2.1128235-5.3706589-2.1128235-8.602951c0-2.3862915,0.3891602-4.5941925,1.1664429-6.6220932    c0.7783203-2.0279007,1.8507385-3.7490692,3.2172852-5.1644211c1.3665466-1.4152451,2.9961853-2.5191498,4.888916-3.3109894    c1.8917847-0.7926559,3.9215698-1.1889267,6.0874634-1.1889267c3.0481873,0,5.7402649,0.6867218,8.0741882,2.0595551    c2.3339233,1.3735428,4.1216125,3.2639618,5.3621216,5.6718521c1.240509,2.4080048,1.8607483,5.1435318,1.8607483,8.2066879    C311.4421387,90.4630051,311.3791199,91.423996,311.2530518,92.1849823z"
      ></path>
      <path
        class="logo-new1"
        d="M313.684021,101.3739624l3.6584473-5.4506531c1.2835083,1.2886124,2.6440735,2.23423,4.0846558,2.8360291    c1.4405518,0.6024933,3.1062012,0.9030914,4.9989624,0.9030914c1.3675232,0,2.4449463-0.2851181,3.2333069-0.8552551    c0.7882996-0.5708466,1.1824341-1.3201752,1.1824341-2.2496109c0-0.7608871-0.4471741-1.3890152-1.3405151-1.8856888    c-0.8933716-0.4959717-2.5280151-1.1564636-4.9049377-1.9800644c-0.9454041-0.3166733-1.7867126-0.6342621-2.5230103-0.950943    c-0.735321-0.3167725-1.4865723-0.6914368-2.2539063-1.124794c-0.76828-0.4326553-1.4255676-0.913147-1.9717712-1.4415817    c-0.5472107-0.5284348-1.0464478-1.1248093-1.4986267-1.789917c-0.4521484-0.6659241-0.7933044-1.4206772-1.0243835-2.2658844    c-0.2320862-0.8451157-0.3471375-1.7744446-0.3471375-2.7879868c0-2.57724,1.0454102-4.7164001,3.1382446-6.4166718    c2.0918274-1.7003632,4.7468872-2.5508957,7.9631653-2.5508957c4.1636353,0,7.8861389,1.3202744,11.1664124,3.9607239    l-3.6274414,5.7036133c-0.8203125-0.7601929-1.6976624-1.3997726-2.6340332-1.9166489    c-0.9353638-0.5175781-1.8347168-0.8930511-2.697052-1.1256104c-0.8613281-0.2317505-1.7236938-0.3483353-2.5860291-0.3483353    c-0.8413391,0-1.6236572,0.23246-2.3499451,0.6975784c-0.7252808,0.4643097-1.0874329,1.1402817-1.0874329,2.0279007    c0,0.5067215,0.2200928,0.9873199,0.662262,1.4414749c0.4411926,0.4542694,0.9984131,0.8605881,1.6706848,1.2198792    c0.6732788,0.3591919,1.5675964,0.7601852,2.6820679,1.2043991c3.3423157,1.3302307,5.4241333,2.2070923,6.2444763,2.6296997    c2.0818176,1.1193771,3.4483643,2.4820709,4.1006165,4.0874634c0.3781433,0.9926453,0.5672302,2.1437759,0.5672302,3.4539032    c0,1.3519287-0.2411194,2.6034698-0.7253113,3.7545013c-0.4831848,1.1509323-1.1984558,2.1649857-2.1438599,3.0413513    c-0.9473572,0.8773651-2.1768494,1.5637894-3.6904602,2.0592575c-1.5145874,0.4974747-3.2492676,0.7447052-5.2050476,0.7447052    C321.4220886,105.9989929,317.174408,104.4573135,313.684021,101.3739624z"
      ></path>
      <path
        class="logo-new1"
        d="M340.0864868,101.3739624l3.6584778-5.4506531c1.2825317,1.2886124,2.644043,2.23423,4.0846252,2.8360291    c1.4395752,0.6024933,3.1062012,0.9030914,4.9989624,0.9030914c1.3665466,0,2.4440002-0.2851181,3.2322998-0.8552551    c0.7893066-0.5708466,1.1834412-1.3201752,1.1834412-2.2496109c0-0.7608871-0.4471436-1.3890152-1.3405151-1.8856888    c-0.8933716-0.4959717-2.5289917-1.1564636-4.9049377-1.9800644c-0.9453735-0.3166733-1.7867126-0.6342621-2.5230103-0.950943    c-0.7362671-0.3167725-1.4875793-0.6914368-2.2548828-1.124794c-0.7683105-0.4326553-1.4245605-0.913147-1.9718018-1.4415817    c-0.5462036-0.5284348-1.0454102-1.1248093-1.4975891-1.789917c-0.452179-0.6659241-0.7933044-1.4206772-1.0253906-2.2658844    c-0.2310791-0.8451157-0.3461609-1.7744446-0.3461609-2.7879868c0-2.57724,1.0454407-4.7164001,3.1382751-6.4166718    c2.0908203-1.7003632,4.7468872-2.5508957,7.9631653-2.5508957c4.1636353,0,7.8851013,1.3202744,11.1654358,3.9607239    l-3.6274414,5.7036133c-0.820343-0.7601929-1.6976929-1.3997726-2.6330872-1.9166489    c-0.9363403-0.5175781-1.8347168-0.8930511-2.697052-1.1256104c-0.8623352-0.2317505-1.7236633-0.3483353-2.5859985-0.3483353    c-0.8413391,0-1.6246948,0.23246-2.3499451,0.6975784c-0.7252808,0.4643097-1.0884399,1.1402817-1.0884399,2.0279007    c0,0.5067215,0.2210999,0.9873199,0.663269,1.4414749c0.4411621,0.4542694,0.9973755,0.8605881,1.6706543,1.2198792    c0.6732788,0.3591919,1.567627,0.7601852,2.6810608,1.2043991c3.3433533,1.3302307,5.4251709,2.2070923,6.2454834,2.6296997    c2.0818176,1.1193771,3.4483643,2.4820709,4.100647,4.0874634c0.3781433,0.9926453,0.5671997,2.1437759,0.5671997,3.4539032    c0,1.3519287-0.2420959,2.6034698-0.7252808,3.7545013c-0.4841919,1.1509323-1.1984863,2.1649857-2.1448364,3.0413513    c-0.9464111,0.8773651-2.1759033,1.5637894-3.6904602,2.0592575c-1.5136108,0.4974747-3.2483215,0.7447052-5.2041016,0.7447052    C347.824585,105.9989929,343.5769043,104.4573135,340.0864868,101.3739624z"
      ></path>
      <path
        class="logo-new1"
        d="M377.5583801,81.6174469c-1.4505615,1.1094208-2.4279785,2.6776352-2.9321594,4.7055359h15.7692566    c-0.3151245-1.2886124-0.8043213-2.4033661-1.4665833-3.3427429c-0.662262-0.9401855-1.5235901-1.6794739-2.5860291-2.2179489    c-1.0614319-0.5391846-2.2648926-0.8080292-3.6114197-0.8080292    C380.7336426,79.9542618,379.0099792,80.5081253,377.5583801,81.6174469z M397.4613037,92.1849823H374.499176    c0.4631653,2.2387543,1.4985657,4.0024338,3.1072083,5.2910614c1.6076355,1.2885132,3.5694275,1.9328232,5.8823547,1.9328232    c3.2582703,0,5.8773193-1.246109,7.8531189-3.7390213l5.0460205,4.3416214    c-1.4295959,1.836853-3.2643127,3.2951202-5.5032043,4.3724823C388.6447754,105.4613113,386.0537415,106,383.1105957,106    c-3.0492249,0-5.7933044-0.6653137-8.2322693-1.9959412c-2.4399719-1.3316345-4.363739-3.2481842-5.7722778-5.7516479    c-1.4085999-2.5029678-2.1128845-5.3706589-2.1128845-8.602951c0-2.3862915,0.3891602-4.5941925,1.1664734-6.6220932    c0.7783203-2.0279007,1.850769-3.7490692,3.2172852-5.1644211c1.3665466-1.4152451,2.9961853-2.5191498,4.8879395-3.3109894    c1.8927612-0.7926559,3.9225769-1.1889267,6.0874329-1.1889267c3.0491943,0,5.741272,0.6867218,8.0751953,2.0595551    c2.3339539,1.3735428,4.1216431,3.2639618,5.3621216,5.6718521c1.239502,2.4080048,1.8607483,5.1435318,1.8607483,8.2066879    C397.6503601,90.4630051,397.5873108,91.423996,397.4613037,92.1849823z"
      ></path>
      <path
        class="logo-new1"
        d="M428.9247742,76.6744308C430.9746094,78.8815231,432,82.2776337,432,86.8617706v18.6628647h-7.2228699    V88.7305756c0-1.6471024-0.1470642-3.0414505-0.4421997-4.1825333c-0.2940979-1.140274-0.7452698-2.0432739-1.3554993-2.7084885    c-0.6092529-0.6659164-1.3195496-1.1464157-2.1288452-1.4422836c-0.8103638-0.295166-1.7817078-0.4434052-2.9181824-0.4434052    c-1.2194824,0-2.3338928,0.211647-3.3433228,0.6334457c-1.0084229,0.4226074-1.8707581,1.0351563-2.5860291,1.8378601    c-0.715271,0.802597-1.26651,1.8169556-1.6556702,3.0422592c-0.3891296,1.2251968-0.5831909,2.5979385-0.5831909,4.1191101    v15.9059372h-7.223877V73.838501h7.223877v4.3408203h0.0940247c1.3255005-1.5627823,2.9011536-2.756424,4.7308655-3.5807419    c1.8297119-0.823494,3.7755127-1.2352448,5.8352966-1.2352448    C424.0408325,73.3633347,426.874939,74.4673309,428.9247742,76.6744308z"
      ></path>
      <path
        class="logo-new0"
        d="M49.8035583,5.7403436v20.3407707c0,1.3202763-0.9973946,2.4241753-2.3070145,2.5469875    c-12.4276314,1.171936-22.1860085,11.7123375-22.1860085,24.4977226c0,12.7870026,9.7583771,23.3265991,22.1860085,24.4978256    c1.3096199,0.1235199,2.3070145,1.2275162,2.3070145,2.5484924v20.3405228c0,1.4984665-1.2688026,2.6522141-2.7583923,2.5708084    C20.8611698,101.6412888,0,79.7851257,0,53.125824C0,26.4681416,20.8611698,4.6124449,47.045166,3.1693568    C48.5347557,3.0866952,49.8035583,4.2416282,49.8035583,5.7403436z"
      ></path>
    </g>
  </g>
</svg>
